OpenSim_Sub03_CSStiffKnee_RCS.mot
version=1
nRows=52
nColumns=11
inDegrees=no
endheader
time	Top_Thigh	Med_Thigh	Bot_Thigh	Top_Shank	2nd_Top_Shank	2nd_Bot_Shank	Bot_Shank	BNOx	BNOy	BNOZ
9.09000000	9899.10487514	9834.73226471	10608.48948311	10816.18903632	12069.55423214	12899.77495837	14142.02691109	66.26537871	-51.27040225	102.57846934
9.10000000	9902.86784034	9834.55883326	10609.40842594	10816.17844925	12069.20741016	12900.62281874	14141.76789895	65.47205568	-51.57003433	100.90610903
9.11000000	9906.14446291	9833.49540774	10608.72095612	10816.14992896	12068.39045534	12901.27241038	14141.99694293	64.54734054	-52.10033189	100.45558729
9.12000000	9909.35608498	9832.03699527	10606.89863566	10816.11022618	12067.26801660	12901.60557991	14142.82977479	63.64719466	-52.82690920	101.61414765
9.13000000	9912.92404869	9830.67860296	10604.41302658	10816.06609164	12066.00474287	12901.50417396	14144.38212626	62.92757942	-53.71538057	104.76903365
9.14000000	9917.26969619	9829.91523795	10601.73569087	10816.02427608	12064.76528307	12900.85003916	14146.76972910	62.54445619	-54.73136028	110.30748882
9.15000000	9922.81041983	9830.23825584	10599.33500907	10815.99148942	12063.71340664	12899.52698598	14150.10638630	62.65160358	-55.84063402	118.60881781
9.16000000	9929.65801693	9831.85649293	10597.43320811	10815.97128374	12062.94483690	12897.57076819	14154.35667304	63.23391758	-57.02224739	129.43809142
9.17000000	9937.40627991	9834.49989567	10595.83526761	10815.96185840	12062.43995423	12895.27469406	14159.23221295	63.99002655	-58.27772256	141.51921145
9.18000000	9945.59882453	9837.85202273	10594.30575038	10815.96089424	12062.16796629	12892.95701992	14164.42012747	64.59082940	-59.61075887	153.47522655
9.19000000	9953.77926652	9841.59643274	10592.60921922	10815.96607213	12062.09808075	12890.93600211	14169.60753801	64.70722506	-61.02505566	163.92918535
9.20000000	9961.49122164	9845.41668438	10590.51023694	10815.97507290	12062.19950527	12889.52989696	14174.48156599	64.01011245	-62.52431228	171.50413652
9.21000000	9968.27830563	9848.99633629	10587.77336637	10815.98557742	12062.44144752	12889.05696082	14178.72933284	62.17039051	-64.11222808	174.82312870
9.22000000	9973.68413423	9852.01894713	10584.16317031	10815.99526655	12062.79311515	12889.83545001	14182.03795998	58.85895816	-65.79250240	172.50921053
9.23000000	9977.25232320	9854.16807555	10579.44421157	10816.00182112	12063.22371583	12892.18362089	14184.09456882	53.74671432	-67.56883458	163.18543067
9.24000000	9978.52648827	9855.12728021	10573.38105297	10816.00292201	12063.70245723	12896.41972978	14184.58628080	46.50455792	-69.44492397	145.47483777
9.25000000	9977.06115793	9854.58806129	10565.74688676	10815.99632645	12064.19841751	12902.84774144	14183.20759452	36.82708420	-71.42334290	118.04888029
9.26000000	9972.83509291	9852.55064600	10556.65037528	10815.98276183	12064.67564089	12911.21603539	14179.93979686	25.33008272	-73.46285073	81.46054968
9.27000000	9966.37814669	9849.41630886	10546.63596828	10815.96681379	12065.09163228	12920.55126625	14175.13672279	13.82600702	-75.46529220	38.70702830
9.28000000	9958.25700320	9845.61312707	10536.27723996	10815.95332583	12065.40345955	12929.83185456	14169.17710531	4.20728571	-77.32870839	-7.05115212
9.29000000	9949.03834636	9841.56917782	10526.14776449	10815.94714148	12065.56819058	12938.03622086	14162.43967740	-1.63365259	-78.95114036	-52.65345985
9.30000000	9939.28886011	9837.71253831	10516.82111607	10815.95310423	12065.54289326	12944.14278568	14155.30317206	-1.80437928	-80.23062917	-94.93936315
9.31000000	9929.57522837	9834.47128572	10508.87086887	10815.97605759	12065.28463547	12947.12996957	14148.14632228	5.58753426	-81.06521589	-130.74833028
9.32000000	9920.45778299	9832.26609135	10502.86078348	10816.02068272	12064.75175757	12946.00019083	14141.34634094	22.39098030	-81.35519617	-156.97095199
9.33000000	9912.24991912	9831.22972208	10498.97311670	10816.08534958	12063.95206812	12940.68878106	14135.22134705	48.76237576	-81.08851276	-172.48520509
9.34000000	9904.94425236	9831.12094680	10496.89453844	10816.16022960	12062.95763658	12932.34295921	14130.01269452	82.65955219	-80.36696512	-178.75075124
9.35000000	9898.51196008	9831.67353947	10496.27859770	10816.23494632	12061.84482708	12922.19093668	14125.95660694	121.89340600	-79.29996195	-177.39979043
9.36000000	9892.92421963	9832.62127405	10496.77884347	10816.29912329	12060.69000374	12911.46092490	14123.28930791	164.27483360	-77.99691192	-170.06452265
9.37000000	9888.15220840	9833.69792452	10498.04882475	10816.34238402	12059.56953070	12901.38113529	14122.24702101	207.61473140	-76.56722372	-158.37714790
9.38000000	9884.16710375	9834.63726482	10499.74209055	10816.35435206	12058.55977207	12893.17977926	14123.06596982	249.72399579	-75.12030605	-143.96986617
9.39000000	9880.94008304	9835.17306893	10501.51218985	10816.32465094	12057.73709199	12888.08506824	14125.98237794	288.41352319	-73.76556759	-128.47487744
9.40000000	9878.44232364	9835.03911081	10503.01267166	10816.24290420	12057.17785458	12887.32521364	14131.23246896	321.49421000	-72.61241703	-113.52438172
9.41000000	9876.64500293	9833.96916443	10503.89708497	10816.09873535	12056.95842397	12892.12842687	14139.05246645	346.77695263	-71.77026305	-100.75057899
9.42000000	9875.51899736	9831.71397422	10503.83600290	10815.88250907	12057.15153856	12903.66987708	14149.67294586	362.17793158	-71.34461507	-91.73592471
9.43000000	9875.02826287	9828.41460574	10502.89155328	10815.60163568	12057.74654510	12921.90476081	14163.19457491	368.03486181	-71.35129885	-86.91874984
9.44000000	9875.12983479	9824.60244562	10501.51741864	10815.28057121	12058.64939868	12945.56830202	14179.58811369	367.10699269	-71.71645655	-85.59326088
9.45000000	9875.78044759	9820.82585098	10500.18430564	10814.94451282	12059.76242867	12973.34268239	14198.81867408	362.25885771	-72.36233104	-87.00391978
9.46000000	9876.93683574	9817.63317892	10499.36292092	10814.61865765	12060.98796444	13003.91008360	14220.85136798	356.35499036	-73.21116519	-90.39518849
9.47000000	9878.55573369	9815.57278658	10499.52397115	10814.32820285	12062.22833534	13035.95268733	14245.65130731	352.25992411	-74.18520187	-95.01152896
9.48000000	9880.59387589	9815.19303107	10501.13816297	10814.09834556	12063.38587077	13068.15267525	14273.18360395	352.83819246	-75.20668394	-100.09740314
9.49000000	9883.00754241	9817.03259887	10504.66739498	10813.95387519	12064.36416779	13099.20387064	14303.39921582	360.89770989	-76.19866158	-104.90641389
9.50000000	9885.73534805	9821.25423070	10510.23115242	10813.90373070	12065.11610630	13128.25266362	14335.69886430	377.04532751	-77.11556906	-109.04751713
9.51000000	9888.69295986	9827.53230037	10517.50411347	10813.93626068	12065.65858626	13155.03334470	14368.76849406	399.02863724	-77.95260970	-112.59128495
9.52000000	9891.79451124	9835.50854336	10526.13122911	10814.03843764	12066.01278621	13179.31949472	14401.24628004	424.40414187	-78.70771150	-115.63914002
9.53000000	9894.95413561	9844.82469510	10535.75745030	10814.19723410	12066.19988470	13200.88469456	14431.77039720	450.72834423	-79.37880242	-118.29250503
9.54000000	9898.08596636	9855.12249106	10546.02772804	10814.39962258	12066.24106025	13219.50252508	14458.97902047	475.55774712	-79.96381046	-120.65280264
9.55000000	9901.10413690	9866.04366668	10556.58701330	10814.63257560	12066.15749142	13234.94656714	14481.51032479	496.44885334	-80.46066361	-122.82145553
9.56000000	9903.92278065	9877.22995742	10567.08025705	10814.88306566	12065.97035673	13246.99040160	14498.00248512	510.95816570	-80.86728985	-124.89988639
9.57000000	9906.45603101	9888.32309874	10577.15241027	10815.13806529	12065.70083473	13255.40760934	14507.09367639	516.64218702	-81.18161716	-126.98951789
9.58000000	9908.61802138	9898.96482608	10586.44842395	10815.38454700	12065.37010395	13259.97177121	14507.42207355	511.05742011	-81.40157352	-129.19177271
9.59000000	9910.32288518	9908.79687491	10594.61324905	10815.60948331	12064.99934294	13260.45646808	14497.62585154	491.76036776	-81.52508694	-131.60807352
9.60000000	9911.48475581	9917.46098067	10601.29183655	10815.79984673	12064.60973023	13256.63528081	14476.34318530	456.30753279	-81.55008538	-134.33984300
